<svg width="83" height="26" viewBox="0 0 83 26" fill="none" xmlns="http://www.w3.org/2000/svg">
<path d="M29.5366 12.9668V4.99132H34.0638C34.7693 4.99132 35.2838 5.06996 35.6075 5.23137C35.981 5.42176 36.2631 5.73217 36.4582 6.15847C36.5951 6.45646 36.6615 6.76273 36.6615 7.08142C36.6615 7.4953 36.5494 7.88021 36.3337 8.23615C36.1137 8.59209 35.8357 8.84041 35.4996 8.97699C36.2756 9.33293 36.6615 9.95789 36.6615 10.856C36.6615 11.3775 36.537 11.8162 36.2922 12.168C36.0805 12.4701 35.8067 12.6812 35.4664 12.7971C35.1303 12.913 34.6282 12.9709 33.9601 12.9709C33.9642 12.9668 29.5366 12.9668 29.5366 12.9668ZM31.238 8.26926H33.5576C33.7983 8.26926 33.9767 8.25684 34.0846 8.23201C34.1966 8.20718 34.3045 8.15337 34.4041 8.07473C34.6531 7.88435 34.7776 7.61946 34.7776 7.28008C34.7776 6.95726 34.6614 6.7172 34.429 6.56407C34.263 6.45232 33.985 6.39852 33.5949 6.39852H31.2421C31.238 6.40266 31.238 8.26926 31.238 8.26926ZM31.238 11.5555H33.5576C33.7983 11.5555 33.9767 11.5431 34.0887 11.5182C34.2008 11.4934 34.3087 11.4396 34.4041 11.3609C34.6531 11.1664 34.7776 10.9015 34.7776 10.5622C34.7776 10.2352 34.6614 9.99514 34.429 9.84201C34.263 9.7344 33.985 9.67645 33.5949 9.67645H31.2421C31.238 9.68059 31.238 11.5555 31.238 11.5555ZM43.915 4.99132V6.40266H41.695C41.114 6.40266 40.6908 6.44404 40.4252 6.52268C40.1638 6.60132 39.9438 6.75859 39.7695 6.99037C39.6534 7.14764 39.5704 7.30905 39.5289 7.47047C39.4832 7.63188 39.45 7.90504 39.4168 8.29409H43.915V9.70542H39.4168C39.4749 10.4007 39.6782 10.8808 40.0185 11.154C40.3629 11.4272 40.948 11.5596 41.7696 11.5596H43.9108V12.9709H41.6908C41.0891 12.9709 40.558 12.9337 40.1057 12.8592C39.3878 12.7433 38.8151 12.4288 38.3919 11.9197C37.786 11.1871 37.4831 10.1938 37.4831 8.93974C37.4831 7.54911 37.9105 6.46888 38.7653 5.69492C39.06 5.43417 39.3712 5.25207 39.7031 5.1486C40.0351 5.04513 40.4791 4.99132 41.0393 4.99132H43.915ZM45.1765 4.99132H46.8778V9.47779C46.9027 10.0448 46.9276 10.4256 46.9525 10.6118C47.0064 10.976 47.1807 11.2202 47.4753 11.3568C47.77 11.4893 48.2887 11.5596 49.0273 11.5596H50.6581V12.9709H48.853C48.0023 12.9751 47.3799 12.9254 46.994 12.8261C46.1101 12.5695 45.5499 12.0107 45.3176 11.1499C45.2263 10.8229 45.1806 10.2642 45.1765 9.47779V4.99132ZM51.127 12.9668L54.4384 4.98718H56.4011L59.7084 12.9668H57.7124L56.9406 11.125H53.8989L53.1271 12.9668C53.123 12.9668 51.127 12.9668 51.127 12.9668ZM55.4177 6.91173L54.2765 9.7137H56.5547L55.4177 6.91173ZM61.3848 6.40266H58.8411V4.99132H65.7377V6.40266H63.0862V12.9709H61.3848V6.40266ZM68.3105 9.92892V12.9668H66.6092V4.99132H70.5139C71.6343 4.99132 72.4186 5.13204 72.8668 5.41762C73.1655 5.608 73.4021 5.86047 73.568 6.17502C73.734 6.48957 73.817 6.83723 73.817 7.21386C73.817 7.9754 73.622 8.55897 73.2361 8.96458C72.9954 9.21291 72.68 9.40329 72.2817 9.53573C72.597 9.64334 72.8294 9.75509 72.9912 9.87925C73.1531 10.0034 73.2942 10.1897 73.427 10.4297C73.5265 10.616 73.5929 10.7981 73.6344 10.976C73.6759 11.154 73.7091 11.4148 73.7382 11.7624C73.7838 12.3336 73.8502 12.7392 73.9332 12.9668H72.0202C71.9621 12.7806 71.9041 12.3998 71.846 11.8286C71.7962 11.3609 71.7132 11.005 71.5887 10.7525C71.4683 10.5042 71.2775 10.3138 71.0285 10.169C70.7214 10.0034 70.2691 9.92064 69.684 9.92478L68.3105 9.92892ZM68.3105 8.51759H70.7007C71.099 8.51759 71.3854 8.45964 71.5513 8.33962C71.8045 8.16165 71.9331 7.85124 71.9331 7.41252C71.9331 6.92415 71.7422 6.6096 71.3563 6.47301C71.2235 6.42749 71.0036 6.40266 70.7007 6.40266H68.3105V8.51759ZM74.4104 12.9668L77.7218 4.98718H79.6846L82.9918 12.9668H80.9958L80.224 11.125H77.1823L76.4105 12.9668H74.4104ZM78.7052 6.91173L77.5641 9.7137H79.8422L78.7052 6.91173ZM37.4499 18.0948H41.3713V22.8337H37.8068C37.1885 22.8337 36.6947 22.7882 36.3337 22.6971C35.9727 22.6061 35.6448 22.4447 35.3502 22.2129C34.512 21.5673 34.0929 20.4539 34.0929 18.877C34.0929 17.8382 34.2921 16.9815 34.6904 16.2985C34.9892 15.7978 35.3917 15.4294 35.898 15.2018C36.4084 14.9741 37.0723 14.8582 37.8898 14.8582H41.3754V16.2696H38.0848C37.3794 16.2696 36.8648 16.4268 36.5453 16.7373C36.1677 17.1056 35.981 17.7637 35.981 18.7156C35.981 19.204 36.0307 19.6427 36.1303 20.0359C36.2299 20.4291 36.3627 20.7229 36.5329 20.9133C36.6905 21.0871 36.898 21.2196 37.1594 21.2982C37.425 21.381 37.7528 21.4224 38.1429 21.4224H39.6699V19.5103H37.4499C37.4499 19.5061 37.4499 18.0948 37.4499 18.0948ZM42.0643 22.8296L45.3757 14.85H47.3384L50.6456 22.8296H48.6497L47.8779 20.9878H44.8362L44.0644 22.8296C44.0602 22.8296 42.0643 22.8296 42.0643 22.8296ZM46.3591 16.7745L45.218 19.5765H47.4961L46.3591 16.7745ZM53.9653 14.85L55.9571 21.0747L58.0527 14.85H60.5341V22.8296H58.9158V16.8407L56.8244 22.8296H55.0733L53.0981 16.8407V22.8296H51.4797V14.85C51.4756 14.85 53.9653 14.85 53.9653 14.85ZM68.1694 14.85V16.2613H65.9494C65.3684 16.2613 64.9452 16.3027 64.6796 16.3813C64.4182 16.46 64.1982 16.6172 64.024 16.849C63.9078 17.0063 63.8248 17.1677 63.7833 17.3291C63.7376 17.4905 63.7044 17.7637 63.6712 18.1527H68.1694V19.5641H63.6712C63.7293 20.2594 63.9327 20.7395 64.2771 21.0126C64.6215 21.2858 65.2066 21.4183 66.0282 21.4183H68.1694V22.8296H65.9494C65.3477 22.8296 64.8165 22.7923 64.3642 22.7178C63.6463 22.602 63.0737 22.2874 62.6504 21.7783C62.0446 21.0458 61.7417 20.0524 61.7417 18.7984C61.7417 17.4077 62.1691 16.3275 63.0239 15.5536C63.3185 15.2928 63.6297 15.1107 63.9617 15.0072C64.2937 14.9038 64.7377 14.85 65.2979 14.85H68.1694ZM69.4931 22.8296V21.4183H73.1489C73.7382 21.4183 74.1282 21.3603 74.3233 21.2444C74.6054 21.0747 74.7465 20.8223 74.7465 20.487C74.7465 20.098 74.5847 19.8165 74.2527 19.6344C74.066 19.531 73.7631 19.4813 73.3523 19.4813H71.8667C70.9579 19.4813 70.3065 19.3157 69.9039 18.9888C69.655 18.7818 69.4599 18.5211 69.3189 18.2065C69.1778 17.892 69.1072 17.5567 69.1072 17.2049C69.1072 16.6421 69.2732 16.1289 69.601 15.6653C69.9205 15.2183 70.4351 14.9576 71.1447 14.8831C71.3854 14.8582 71.7422 14.8458 72.2153 14.8458H76.1864V16.2572H72.6012C72.0659 16.2613 71.709 16.2861 71.5306 16.3275C71.1696 16.4186 70.9911 16.6917 70.9911 17.147C70.9911 17.5319 71.1405 17.7927 71.4434 17.9251C71.6468 18.0162 71.987 18.0617 72.456 18.0617H73.7382C74.398 18.0617 74.8876 18.1196 75.2154 18.2314C75.7839 18.4218 76.174 18.757 76.3856 19.233C76.5558 19.6179 76.6429 20.0318 76.6429 20.4705C76.6429 20.9547 76.5309 21.3851 76.3109 21.7701C75.9956 22.3164 75.5267 22.6392 74.8918 22.7468C74.5888 22.7965 74.1282 22.8213 73.5182 22.8213H69.4931V22.8296Z" fill="white"/>
<path d="M7.14561 0.893983L0.892164 7.12703C0.742778 7.27603 0.668086 7.47469 0.668086 7.66921C0.668086 7.86788 0.742778 8.0624 0.892164 8.2114L7.14146 14.4444C7.29085 14.5934 7.49003 14.6679 7.68506 14.6679C7.88424 14.6679 8.07927 14.5934 8.22866 14.4444L14.4821 8.2114C14.6315 8.0624 14.7062 7.86374 14.7062 7.66921C14.7062 7.47469 14.6315 7.27603 14.4821 7.12703L8.23281 0.893983C8.08342 0.744986 7.88839 0.670487 7.68921 0.670487C7.49418 0.670487 7.295 0.744986 7.14561 0.893983ZM8.70586 0.422159L11.2039 2.91372C13.1293 1.44444 14.5568 0.558739 14.5609 0.558739L14.6813 0.480102L14.8016 0.5546C14.839 0.579433 28.2048 8.93155 28.2048 16.9029C28.2048 18.8481 27.4372 20.6113 26.1923 21.8902C24.9474 23.1691 23.2295 23.9596 21.3331 23.9596C19.9347 23.9596 18.5612 23.5415 17.4034 22.8131C16.5486 22.2751 15.8058 21.5715 15.2622 20.7396C15.8805 25.2923 20.7355 25.5406 21.2874 25.553H21.3372L21.3331 25.7765V26H15.1336H8.03363V25.7765V25.553H8.08342C8.63532 25.5406 13.4862 25.2881 14.1045 20.7437C13.5609 21.5715 12.8264 22.2751 11.9716 22.809C10.8097 23.5374 9.43204 23.9513 8.03363 23.9513C6.13726 23.9513 4.41932 23.1608 3.17444 21.8819C1.93371 20.603 1.16189 18.8399 1.16189 16.8946C1.16189 15.9013 1.36522 14.9039 1.72208 13.9147C2.04575 13.0207 2.49391 12.1391 3.03336 11.2783L0.41911 8.6708C0.141086 8.40178 0 8.03757 0 7.66921C0 7.30086 0.141086 6.93664 0.41911 6.65521L6.67256 0.41802C6.95473 0.14072 7.32404 0 7.68921 0C8.05852 0 8.42784 0.140719 8.70586 0.422159Z" fill="white"/>
</svg>
