<svg width="57" height="26" viewBox="0 0 57 26" fill="none" xmlns="http://www.w3.org/2000/svg">
<g clipPath="url(#clip0)">
<path d="M3.74472 8.15588L9.91053 11.0521C9.76562 10.9547 6.83331 8.96372 5.92975 7.38814C5.00061 5.77531 5.06881 4.58073 5.85303 3.42626C6.63725 2.27179 8.58076 1.54415 11.5358 1.73609C14.4908 1.92802 17.7414 2.8304 20.1793 5.04195C20.1793 5.04195 18.0994 1.31498 12.8059 0.272228C7.5124 -0.770522 3.43785 1.33503 1.08802 3.49215C0.465759 4.06509 0.144682 4.60938 0.0395508 5.13076C0.0878544 6.7178 3.74472 8.15588 3.74472 8.15588Z" fill="white"/>
<path d="M5.85303 22.5739C5.06596 21.4194 5.00061 20.2248 5.92975 18.612C6.85888 16.9992 9.91621 14.9452 9.91621 14.9452L3.74472 17.8443C3.74472 17.8443 0.085013 19.2823 0.0395508 20.8694C0.144682 21.3908 0.465759 21.9351 1.08802 22.508C3.43785 24.6651 7.50956 26.7678 12.8031 25.725C18.0994 24.6852 20.1793 20.9582 20.1793 20.9582C17.7414 23.1697 14.4908 24.075 11.5358 24.2641C8.58076 24.456 6.63725 23.7312 5.85303 22.5739Z" fill="white"/>
<path d="M3.74502 17.8442L9.91651 14.9451C9.91651 14.9451 11.6696 13.9998 11.6696 13.063C11.6696 13.043 11.6696 13.0201 11.6668 13C11.6668 12.98 11.6696 12.957 11.6696 12.937C11.6696 12.0002 9.91651 11.0549 9.91651 11.0549C9.91651 11.0549 9.91367 11.052 9.91083 11.052L3.74502 8.1558C3.74502 8.1558 0.0881555 6.72059 0.0398519 5.13354C-0.252811 6.57449 1.10537 7.82063 2.22488 8.88916C3.72229 10.3129 4.38717 11.7281 4.37581 13C4.38717 14.2719 3.72229 15.6871 2.22488 17.1137C1.10537 18.1794 -0.252811 19.4255 0.0398519 20.8693C0.0853141 19.2823 3.74502 17.8442 3.74502 17.8442Z" fill="white"/>
<path d="M15.1336 13.6274C15.1336 13.7764 15.2075 13.8881 15.3553 13.9597C15.503 14.0342 15.6877 14.0714 15.915 14.0743C16.1395 14.0772 16.3611 14.0657 16.5771 14.0457C16.793 14.0227 16.9976 13.9998 17.188 13.9712C17.3812 13.9425 17.4891 13.9282 17.5176 13.9282C17.5374 14.3436 17.455 14.6387 17.2732 14.8105C17.0914 14.9824 16.7248 15.0684 16.1736 15.0684C15.4149 15.0684 14.858 14.9137 14.5 14.6014C14.1448 14.2892 13.9658 13.7535 13.9658 12.9857C13.9658 12.6019 14.0141 12.2781 14.1107 12.0146C14.2073 11.7482 14.3494 11.5477 14.5369 11.4073C14.7245 11.2698 14.9319 11.1695 15.162 11.1122C15.3922 11.0549 15.6621 11.0263 15.969 11.0263C16.5572 11.0263 16.9919 11.1523 17.2675 11.4044C17.546 11.6565 17.6852 12.0576 17.6852 12.6076C17.6852 12.8196 17.6454 12.9857 17.563 13.1146C17.4835 13.2407 17.3755 13.3266 17.2476 13.3696C17.1169 13.4126 16.9606 13.4441 16.7788 13.4641C16.5969 13.4842 16.4151 13.4899 16.2389 13.4813C16.0599 13.4727 15.8696 13.4813 15.6621 13.5071C15.4576 13.53 15.2785 13.5701 15.1336 13.6274ZM15.0967 12.874C15.1763 12.8167 15.3098 12.7795 15.4916 12.7594C15.6735 12.7394 15.844 12.7308 16.0031 12.7279C16.1622 12.725 16.3043 12.6907 16.4265 12.6276C16.5486 12.5618 16.6083 12.4615 16.6055 12.324C16.6055 12.2008 16.5089 12.0977 16.3128 12.0146C16.0429 11.9 15.7786 11.8914 15.5229 11.9859C15.1677 12.1149 15.0257 12.4099 15.0967 12.874Z" fill="#FFFFFC"/>
<path d="M22.2713 12.3927V15.0053C22.1065 15.0139 21.9616 15.0139 21.8451 15.0025C21.7258 14.991 21.615 14.9624 21.507 14.9194C21.399 14.8764 21.3223 14.8048 21.2712 14.7074C21.22 14.61 21.2001 14.4868 21.203 14.3379V12.7881V12.7737V12.4156C21.1319 12.0662 20.808 11.9286 20.2341 12.0003C19.9357 12.0375 19.7624 12.0662 19.7141 12.0862C19.7283 12.1664 19.7368 12.2638 19.7368 12.3727V14.3379C19.7425 14.4868 19.7169 14.61 19.6658 14.7074C19.6146 14.8048 19.5351 14.8764 19.4299 14.9194C19.3248 14.9624 19.214 14.991 19.0947 15.0025C18.9753 15.0139 18.8333 15.0168 18.6685 15.0053V11.5104C18.6685 11.1981 19.1657 11.032 20.1573 11.0091C21.5638 10.9718 22.2685 11.4331 22.2713 12.3927Z" fill="#FFFFFC"/>
<path d="M25.9963 9.47354C26.0674 9.52511 26.1554 9.55948 26.2634 9.57381C26.3714 9.58813 26.468 9.59672 26.5561 9.59672C26.6442 9.59672 26.7294 9.61105 26.809 9.63683C26.8885 9.66261 26.951 9.72563 26.9965 9.8259C27.042 9.92616 27.0647 10.0723 27.0647 10.2642V14.4982C27.059 14.504 27.0363 14.5297 26.9965 14.5813C26.9567 14.6329 26.9198 14.673 26.8857 14.7045C26.8516 14.736 26.7919 14.7761 26.701 14.8277C26.6101 14.8792 26.5106 14.9165 26.4026 14.9451C26.2947 14.9738 26.1469 14.9995 25.9622 15.0253C25.7775 15.0482 25.5673 15.0626 25.3371 15.0626C24.6069 15.0626 24.0812 14.9021 23.763 14.5842C23.4448 14.2662 23.2856 13.7362 23.2856 12.9943C23.2856 12.7078 23.3226 12.45 23.3993 12.2237C23.476 11.9973 23.5755 11.8111 23.7005 11.6679C23.8255 11.5247 23.9733 11.4043 24.1466 11.3098C24.3171 11.2153 24.4904 11.1465 24.6666 11.1093C24.8427 11.072 25.0246 11.052 25.2149 11.052C25.5815 11.052 25.8401 11.1093 25.9992 11.2239V9.47354H25.9963ZM25.9963 13.0601V12.0403C25.9338 12.0203 25.8656 12.0031 25.7946 11.9887C25.7207 11.9744 25.6298 11.963 25.5218 11.9572C25.4138 11.9486 25.3087 11.9515 25.2121 11.9601C25.1155 11.9687 25.0132 11.9973 24.9109 12.046C24.8058 12.0947 24.7177 12.1578 24.641 12.2351C24.5643 12.3153 24.5046 12.4242 24.4563 12.5646C24.408 12.7049 24.3853 12.8711 24.3853 13.063C24.3853 13.2435 24.4137 13.4039 24.4705 13.5357C24.5273 13.6703 24.5984 13.7735 24.6808 13.8451C24.7632 13.9167 24.8655 13.9711 24.9876 14.0055C25.1098 14.0399 25.2178 14.0628 25.3144 14.0714C25.411 14.08 25.5161 14.0771 25.6298 14.0628C25.7434 14.0513 25.823 14.0399 25.8685 14.0313C25.9139 14.0227 25.9537 14.0112 25.9935 14.0026H26.002C25.9992 14.0084 25.9992 13.6932 25.9963 13.0601Z" fill="#FFFFFC"/>
<path d="M28.0734 13.0173C28.0677 12.9886 28.0649 12.9514 28.0621 12.9027C28.0592 12.854 28.0677 12.7623 28.0848 12.622C28.1018 12.4845 28.1274 12.3498 28.1672 12.2238C28.2041 12.0977 28.2723 11.9574 28.3661 11.8027C28.4599 11.6508 28.5792 11.5191 28.7184 11.4073C28.8577 11.2985 29.048 11.2039 29.2839 11.1323C29.5197 11.0578 29.7925 11.0206 30.0965 11.0206C30.3096 11.0206 30.5057 11.0378 30.6875 11.0722C30.8665 11.1065 31.0228 11.1524 31.1535 11.2097C31.2842 11.267 31.4007 11.3386 31.503 11.4245C31.6053 11.5105 31.6905 11.5964 31.7559 11.6795C31.8212 11.7626 31.878 11.8628 31.9235 11.9774C31.969 12.092 32.0031 12.1923 32.0258 12.2753C32.0485 12.3584 32.0656 12.4558 32.0769 12.5704C32.0855 12.6821 32.0911 12.7681 32.094 12.8254C32.0968 12.8827 32.0968 12.9571 32.094 13.0431C32.0911 13.1319 32.0911 13.1806 32.0911 13.1892C32.0911 13.2665 32.0883 13.3353 32.0826 13.3983C32.0769 13.4613 32.0627 13.5587 32.04 13.6934C32.0173 13.828 31.9832 13.9483 31.9406 14.0515C31.8979 14.1574 31.8297 14.272 31.7388 14.3952C31.645 14.5184 31.5371 14.6244 31.4121 14.7075C31.287 14.7905 31.1222 14.8622 30.9205 14.9195C30.7188 14.9768 30.4914 15.0054 30.2414 15.0054C29.98 15.0054 29.747 14.9882 29.5424 14.9538C29.3378 14.9195 29.1645 14.8765 29.0225 14.8221C28.8804 14.7676 28.7554 14.6931 28.6474 14.5957C28.5394 14.5012 28.4542 14.4009 28.3888 14.3007C28.3235 14.2004 28.2666 14.0772 28.224 13.9283C28.1814 13.7793 28.1501 13.6389 28.1274 13.5014C28.1047 13.3639 28.0876 13.2064 28.0734 13.0173ZM29.1333 13.0832C29.1475 13.2493 29.1674 13.384 29.1929 13.4814C29.2185 13.5788 29.2668 13.6762 29.335 13.7707C29.4032 13.8652 29.5083 13.9369 29.6447 13.9798C29.7811 14.0228 29.9573 14.0457 30.1704 14.0457C30.3352 14.0457 30.4801 14.0199 30.5966 13.9655C30.7159 13.9139 30.804 13.8538 30.8608 13.785C30.9177 13.7191 30.9631 13.6361 30.9972 13.5415C31.0313 13.447 31.0484 13.3754 31.054 13.3267C31.0597 13.278 31.0626 13.2264 31.0626 13.1691C31.0626 13.1634 31.0626 13.1405 31.0626 13.0946C31.0626 13.0488 31.0626 13.0116 31.0626 12.9801C31.0626 12.9485 31.0597 12.9027 31.054 12.8397C31.0484 12.7767 31.0398 12.7251 31.0285 12.6793C31.0171 12.6334 31.0001 12.579 30.9773 12.5188C30.9546 12.4558 30.929 12.4042 30.8978 12.3584C30.8665 12.3126 30.8267 12.2667 30.7756 12.218C30.7244 12.1693 30.6705 12.1321 30.6079 12.1006C30.5454 12.0691 30.4716 12.0433 30.3835 12.0261C30.2954 12.0061 30.1988 11.9975 30.0965 11.9975C29.9061 11.9975 29.7442 12.0232 29.6135 12.0777C29.4799 12.1292 29.3833 12.1923 29.3208 12.261C29.2583 12.3298 29.2128 12.4214 29.1787 12.5332C29.1446 12.6449 29.1276 12.7337 29.1247 12.7938C29.1219 12.8569 29.1247 12.9342 29.1276 13.0316C29.1333 13.0545 29.1333 13.0746 29.1333 13.0832Z" fill="#FFFFFC"/>
<path d="M35.7106 11.0234C35.7049 11.032 35.7078 11.0835 35.7135 11.1752C35.722 11.2669 35.7191 11.3528 35.7106 11.4359C35.7021 11.519 35.6822 11.6106 35.6538 11.7052C35.6254 11.7997 35.5685 11.8771 35.4805 11.9344C35.3924 11.9916 35.2787 12.0203 35.1423 12.0203C34.9434 12.0203 34.79 12.0289 34.6792 12.0432C34.5712 12.0575 34.4718 12.0948 34.3865 12.1521C34.3013 12.2094 34.2445 12.2896 34.2161 12.3956C34.1876 12.5016 34.1734 12.6448 34.1734 12.8253V15.1228C34.0882 15.0597 33.9745 15.011 33.8353 14.9767C33.6961 14.9394 33.5767 14.9136 33.4801 14.8936C33.3835 14.8735 33.2954 14.8191 33.2216 14.7246C33.1448 14.63 33.1079 14.4954 33.1079 14.3178V12.3956C33.1079 12.3669 33.1079 12.3268 33.1108 12.2781C33.1136 12.2265 33.1221 12.1578 33.1363 12.069C33.1505 11.9802 33.1733 11.8914 33.2074 11.8026C33.2415 11.7138 33.2898 11.6221 33.358 11.5276C33.4233 11.433 33.5057 11.3471 33.5995 11.2755C33.6932 11.2039 33.8154 11.1437 33.966 11.095C34.1166 11.0463 34.2814 11.0234 34.4689 11.0234C34.7872 11.0234 35.023 11.0234 35.1736 11.0234C35.3242 11.0234 35.4094 11.0234 35.4236 11.0234C35.4378 11.0234 35.4663 11.0234 35.506 11.0234C35.5401 11.0234 35.6112 11.0234 35.7106 11.0234Z" fill="#FFFFFC"/>
<path d="M37.6485 16.5924C37.5633 16.5294 37.4496 16.4921 37.3104 16.4807C37.1712 16.4692 37.0518 16.4635 36.9552 16.4635C36.8586 16.4635 36.7705 16.4119 36.6967 16.3088C36.6199 16.2057 36.583 16.0366 36.583 15.8017V11.5677C36.5887 11.562 36.6114 11.5362 36.6512 11.4846C36.691 11.4331 36.7279 11.3958 36.762 11.3672C36.7961 11.3385 36.8558 11.2984 36.9467 11.244C37.0376 11.1924 37.1371 11.1495 37.2451 11.1208C37.353 11.0922 37.5008 11.0664 37.6855 11.0406C37.8702 11.0177 38.0804 11.0034 38.3106 11.0034C39.0408 11.0034 39.5665 11.1638 39.8847 11.4818C40.2029 11.7997 40.3621 12.3297 40.3621 13.0717C40.3621 13.4298 40.3052 13.742 40.1916 14.0056C40.0779 14.2691 39.9245 14.4696 39.7313 14.6129C39.5381 14.7532 39.3363 14.8564 39.1204 14.9223C38.9044 14.9882 38.6743 15.0197 38.4328 15.0197C38.106 15.0197 37.8446 14.9853 37.6485 14.9194V16.5924ZM37.6485 13.0029V14.0228C37.7252 14.0457 37.8076 14.0657 37.8929 14.08C37.981 14.0944 38.0918 14.1058 38.2225 14.1173C38.356 14.1259 38.4782 14.1116 38.5919 14.0743C38.7055 14.0371 38.8135 13.9798 38.9186 13.9082C39.0238 13.8365 39.1062 13.722 39.1687 13.5644C39.2312 13.4068 39.2624 13.2178 39.2624 12.9972C39.2624 12.8167 39.234 12.6563 39.1744 12.5245C39.1147 12.3899 39.0465 12.2867 38.9669 12.2151C38.8874 12.1435 38.7851 12.0891 38.6572 12.0547C38.5294 12.0175 38.4214 11.9974 38.3361 11.9888C38.2509 11.9802 38.1429 11.9859 38.0151 12.0003C37.8872 12.0146 37.8076 12.0232 37.7792 12.0289C37.7508 12.0346 37.7082 12.0432 37.6514 12.0576H37.6428C37.6428 12.0576 37.6428 12.3727 37.6485 13.0029Z" fill="#FFFFFC"/>
<path d="M42.4306 11.1609C42.6636 11.0664 43.0528 11.0177 43.5984 11.0177C43.8655 11.0177 44.0928 11.0635 44.2803 11.1552C44.4707 11.2469 44.6071 11.35 44.6923 11.4674C44.7776 11.5849 44.8429 11.7195 44.8884 11.8685C44.9338 12.0203 44.9594 12.132 44.9623 12.2065C44.9679 12.281 44.9679 12.344 44.9623 12.3956V15.0082C44.2491 15.1027 43.8939 14.8822 43.8939 14.3407C43.8939 14.1402 43.8939 13.8766 43.8939 13.5501C43.8996 12.8368 43.8655 12.4042 43.7944 12.2466C43.7234 12.0919 43.4989 12.0089 43.1267 12.0003C42.8937 12.0003 42.6607 12.0432 42.4277 12.1292V14.3407C42.4363 14.6272 42.3482 14.8163 42.1606 14.9051C41.9731 14.9939 41.706 15.0283 41.3594 15.0082V9.40771C41.4446 9.47074 41.5583 9.50798 41.6975 9.51944C41.8367 9.5309 41.9561 9.53663 42.0527 9.53663C42.1493 9.53663 42.2374 9.58819 42.3112 9.69132C42.388 9.79445 42.4249 9.96347 42.4249 10.1984V11.1609H42.4306Z" fill="#FFFFFC"/>
<path d="M46.1531 10.6138C46.0451 10.4992 45.9883 10.3617 45.9883 10.2042C45.9883 10.0466 46.0451 9.91196 46.1559 9.79737C46.2667 9.68565 46.4003 9.62836 46.5594 9.62836C46.7157 9.62836 46.8492 9.68565 46.9629 9.79737C47.0737 9.9091 47.1305 10.0437 47.1305 10.2042C47.1305 10.3617 47.0737 10.4964 46.9629 10.6109C46.8521 10.7227 46.7185 10.78 46.5594 10.78C46.4031 10.78 46.2667 10.7255 46.1531 10.6138ZM47.0851 11.7396C47.0851 11.5047 47.0481 11.3357 46.9714 11.2326C46.8947 11.1295 46.8094 11.0779 46.7128 11.0779C46.6162 11.0779 46.4969 11.0722 46.3577 11.0607C46.2184 11.0492 46.1048 11.012 46.0195 10.949V15.0025C46.3662 15.0226 46.6333 14.9882 46.8208 14.8994C47.0083 14.8106 47.0964 14.6244 47.0879 14.3351V11.7396H47.0851Z" fill="#FFFFFC"/>
<path d="M51.742 12.3927V15.0053C51.5772 15.0139 51.4323 15.0139 51.3158 15.0025C51.1965 14.991 51.0857 14.9624 50.9777 14.9194C50.8697 14.8764 50.793 14.8048 50.7419 14.7074C50.6907 14.61 50.6708 14.4868 50.6737 14.3379V12.7881V12.7737V12.4156C50.6026 12.0662 50.2787 11.9286 49.7048 12.0003C49.4064 12.0375 49.2331 12.0662 49.1848 12.0862C49.199 12.1664 49.2075 12.2638 49.2075 12.3727V14.3379C49.2132 14.4868 49.1876 14.61 49.1365 14.7074C49.0853 14.8048 49.0058 14.8764 48.9007 14.9194C48.7955 14.9624 48.6847 14.991 48.5654 15.0025C48.446 15.0139 48.304 15.0168 48.1392 15.0053V11.5104C48.1392 11.1981 48.6364 11.032 49.628 11.0091C51.0317 10.9718 51.7364 11.4331 51.742 12.3927Z" fill="#FFFFFC"/>
<path d="M53.0375 12.0289C53.0375 12.0146 53.0347 11.9945 53.029 11.9716C53.0233 11.9487 53.0233 11.9 53.0261 11.8312C53.029 11.7625 53.0347 11.6966 53.0489 11.6336C53.0602 11.5706 53.0858 11.5018 53.1199 11.4216C53.1569 11.3414 53.2023 11.2755 53.262 11.2211C53.3217 11.1666 53.4012 11.1208 53.5035 11.0807C53.6058 11.0435 53.7251 11.0234 53.8644 11.0234C53.907 11.0234 53.9723 11.0234 54.0633 11.0234C54.1854 11.0177 54.3133 11.0177 54.444 11.0234C54.5747 11.0291 54.7054 11.0349 54.8361 11.0406C54.9668 11.0492 55.0947 11.0692 55.2169 11.1007C55.339 11.1351 55.4584 11.1752 55.5692 11.2239C55.68 11.2726 55.7823 11.3414 55.8761 11.4273C55.9698 11.5161 56.0494 11.6164 56.1176 11.731C56.1858 11.8456 56.2398 11.9859 56.2767 12.155C56.3136 12.3211 56.3335 12.5102 56.3335 12.7222V12.7737V12.8253V12.8826V12.9342V12.9915V13.0487V13.1146V13.1862V13.2579V13.3438V13.4584V13.5157C56.3335 13.7134 56.3108 13.891 56.2682 14.0514C56.2256 14.2118 56.1716 14.3407 56.1091 14.4439C56.0437 14.5441 55.9641 14.6329 55.8704 14.7103C55.7766 14.7876 55.6857 14.842 55.6033 14.8793C55.5209 14.9165 55.4243 14.9452 55.3163 14.9652C55.2083 14.9881 55.1231 14.9996 55.0634 15.0053C55.0038 15.0111 54.9327 15.0139 54.8532 15.0139H53.87C53.8558 15.0139 53.8331 15.0139 53.8047 15.0111C53.7763 15.0082 53.7223 15.0025 53.6456 14.9881C53.566 14.9767 53.4921 14.9595 53.4211 14.9337C53.3501 14.9108 53.2705 14.8707 53.1824 14.8163C53.0943 14.7618 53.0205 14.6959 52.958 14.6215C52.8954 14.547 52.8443 14.4496 52.8017 14.3321C52.7591 14.2118 52.7363 14.0772 52.7363 13.9311C52.7363 13.6675 52.7704 13.4469 52.8358 13.2665C52.9011 13.086 53.0034 12.9485 53.137 12.8511C53.2733 12.7537 53.4239 12.6849 53.5887 12.6477C53.7535 12.6104 53.9553 12.5904 54.194 12.5904C54.606 12.5904 54.8873 12.5617 55.0379 12.5073C55.1884 12.4529 55.2623 12.3669 55.2623 12.2524C55.2623 12.0891 55.106 11.9802 54.7963 11.9229C54.4866 11.8656 54.157 11.8542 53.8075 11.8857C53.4609 11.9115 53.2023 11.9602 53.0375 12.0289ZM55.2936 13.1118C55.2737 13.1347 55.2481 13.1633 55.2112 13.1977C55.1742 13.2321 55.0947 13.2751 54.9725 13.3295C54.8503 13.3839 54.7196 13.4126 54.5889 13.4126C54.3559 13.4126 54.1684 13.4412 54.0235 13.4985C53.8786 13.5558 53.8075 13.636 53.8075 13.742C53.8075 13.8652 53.8587 13.9597 53.9638 14.0227C54.0689 14.0858 54.2764 14.1173 54.5889 14.1173C54.7168 14.1173 54.8162 14.1173 54.8844 14.1144C54.9526 14.1115 55.018 14.0944 55.0776 14.06C55.1373 14.0256 55.1771 13.9941 55.2027 13.9654C55.2254 13.9368 55.2453 13.8766 55.2623 13.7821C55.2794 13.6876 55.2879 13.5988 55.2907 13.5128C55.2907 13.4269 55.2936 13.2922 55.2936 13.1118Z" fill="#FFFFFC"/>
</g>
<defs>
<clipPath id="clip0">
<rect width="56.3333" height="26" fill="white"/>
</clipPath>
</defs>
</svg>
